<?xml version="1.0" encoding="utf-8"?>
<!DOCTYPE svg PUBLIC "-//W3C//DTD SVG 20010904//EN" "http://www.w3.org/TR/2001/REC-SVG-20010904/DTD/svg10.dtd">
<svg version="1.0" xmlns="http://www.w3.org/2000/svg" width="150pt" height="150pt" viewBox="0 0 150 150" style="background-color:#000000" preserveAspectRatio="xMidYMid meet">
<g fill="#CDFB0AFF" stroke="#CDFB0AFF">
<path d="M 62.612 27.005 C 52.513 27.811 53.740 26.883 44.107 41.000 C 36.834 51.659 29.996 64.073 30.014 66.585 C 30.040 70.094 47.830 100.000 49.892 100.000 C 50.869 100.000 59.000 86.501 59.000 84.877 C 59.000 84.100 57.951 81.897 56.668 79.982 C 55.386 78.067 53.097 74.199 51.583 71.386 L 48.830 66.271 52.093 60.386 C 53.887 57.149 57.141 51.913 59.323 48.750 L 63.290 43.000 74.596 43.000 L 85.903 43.000 90.452 35.969 C 92.953 32.102 95.000 28.568 95.000 28.117 C 95.000 27.266 81.141 25.905 75.000 26.153 C 73.075 26.231 67.500 26.614 62.612 27.005 "/></g>
<g fill="#CDFB0AFF" stroke="#CDFB0AFF">
<path d="M 95.553 46.363 L 90.964 53.726 96.512 62.564 C 99.767 67.748 101.821 72.041 101.481 72.950 C 100.273 76.187 92.776 88.647 90.020 92.000 L 87.144 95.500 75.958 95.678 L 64.772 95.855 59.942 103.393 L 55.113 110.931 58.567 111.578 C 60.466 111.935 69.877 112.055 79.480 111.846 C 95.446 111.497 97.072 111.295 98.492 109.482 C 103.239 103.421 115.287 84.558 118.151 78.702 L 121.476 71.905 117.690 64.549 C 113.266 55.955 102.169 39.000 100.969 39.000 C 100.514 39.000 98.077 42.313 95.553 46.363 "/></g>
<g fill="#091C3EFF" stroke="#091C3EFF">
<path d="M 70.270 58.483 C 66.420 60.156 63.007 65.333 63.007 69.500 C 63.007 77.014 70.678 82.998 77.787 81.029 C 82.269 79.788 83.124 79.219 85.308 76.027 C 89.053 70.555 86.485 61.407 80.393 58.516 C 76.494 56.666 74.463 56.660 70.270 58.483 "/></g>
</svg>
