<?xml version="1.0" encoding="utf-8"?>
<!-- Generator: Adobe Illustrator 26.2.0, SVG Export Plug-In . SVG Version: 6.00 Build 0)  -->
<svg version="1.1" id="Calque_1" xmlns="http://www.w3.org/2000/svg" xmlns:xlink="http://www.w3.org/1999/xlink" x="0px" y="0px"
	 viewBox="0 0 70 70" style="enable-background:new 0 0 70 70;" xml:space="preserve">
<style type="text/css">
	.st1{fill:#091C3E;}
	.st2{fill:#CDFB0A;}
</style>
<g>
	<g>
    <path class="st1" d="M40.9,32.4c0,3.2-2.6,5.8-5.8,5.8c-3.2,0-5.8-2.6-5.8-5.8s2.6-5.8,5.8-5.8C38.3,26.6,40.9,29.2,40.9,32.4z"/>
    <g>
      <path class="st2" d="M47,18l-4.4,7.1c2,2.9,3.7,5.6,5.2,8.6c-1.9,3.8-4.1,7.5-6.7,10.9c-3.6,0.3-7.1,0.3-10.7,0.1l-4.5,7.1
                           c6.8,0.6,13,0.8,19.4-0.2c4.6-5.6,8.1-11.3,11.2-17.9C54,28,50.7,22.8,47,18z"/>
      <path class="st2" d="M22.6,31c1.9-3.8,4.1-7.5,6.7-10.9c3.6-0.3,7.1-0.3,10.7-0.1l4.5-7.1c-6.4-0.7-12.6-0.6-19.4,0.2
                           c-4.3,5.2-8.4,11.7-11.2,18c2.5,5.7,5.6,10.6,9.4,15.7l4.4-7.1C25.8,36.7,24.1,34,22.6,31z"/>
    </g>
	</g>
</g>
</svg>
