<?xml version="1.0" standalone="no"?>
<!DOCTYPE svg PUBLIC "-//W3C//DTD SVG 20010904//EN"
 "http://www.w3.org/TR/2001/REC-SVG-20010904/DTD/svg10.dtd">
<svg version="1.0" xmlns="http://www.w3.org/2000/svg"
 width="250.000000pt" height="250.000000pt" viewBox="0 0 250.000000 250.000000"
 preserveAspectRatio="xMidYMid meet">
<metadata>
Created by potrace 1.14, written by Peter Selinger 2001-2017
</metadata>
<g transform="translate(0.000000,250.000000) scale(0.100000,-0.100000)"
fill="#000000" stroke="none">
<path d="M973 2471 c-148 -91 -140 -480 14 -660 33 -39 81 -72 112 -77 18 -3
30 -23 32 -49 0 -11 2 -27 4 -35 2 -8 11 -53 19 -100 9 -47 20 -99 25 -117 22
-76 -28 -32 -53 47 -35 109 -150 227 -292 298 -178 90 -304 72 -304 -43 0 -34
53 -129 102 -181 60 -64 210 -168 251 -173 4 0 23 -7 42 -15 22 -9 60 -14 102
-12 62 3 73 0 116 -28 54 -36 72 -66 87 -156 18 -106 21 -121 40 -215 10 -49
16 -92 15 -94 -2 -1 -19 9 -37 23 -27 20 -34 33 -36 63 -6 102 -135 267 -271
346 -121 72 -259 99 -328 65 -151 -74 -34 -331 217 -478 113 -66 220 -87 302
-59 l53 18 53 -37 c73 -50 81 -66 39 -82 -86 -34 -117 -52 -142 -82 -27 -32
-29 -52 -10 -138 4 -22 11 -58 31 -165 3 -16 14 -75 25 -130 11 -55 22 -113
25 -130 5 -33 35 -61 74 -69 28 -5 183 0 216 7 120 28 217 76 234 118 7 15 9
32 6 37 -3 6 -8 27 -11 48 -2 22 -12 73 -20 114 -8 41 -17 86 -20 100 -3 14
-9 48 -15 75 -5 28 -12 61 -14 75 -12 69 -26 113 -41 130 -23 25 -89 40 -162
37 -69 -4 -63 -10 -78 83 -3 19 -9 49 -13 65 -5 17 -7 36 -6 43 1 6 2 18 3 25
1 6 16 22 35 35 26 18 44 22 82 19 27 -2 78 2 114 9 64 13 162 52 168 67 2 4
9 7 15 7 20 0 93 73 116 115 71 132 -50 223 -244 183 -121 -24 -259 -118 -295
-202 -20 -43 -19 -98 0 -121 7 -9 8 -15 1 -19 -15 -9 -27 20 -40 94 -12 69
-17 100 -26 140 -9 40 -13 65 -20 112 -7 43 -6 45 38 81 45 37 67 46 67 27 0
-5 14 -17 31 -25 86 -45 224 39 295 177 21 42 40 113 37 146 0 6 -1 21 -2 33
0 12 -16 36 -35 55 -27 27 -42 34 -74 34 -80 0 -166 -59 -227 -155 -34 -53
-44 -79 -51 -135 -3 -19 -13 -43 -22 -53 -15 -17 -64 -47 -76 -47 -8 0 -24 62
-36 139 -12 69 -11 75 7 90 53 44 86 150 86 271 -1 147 -46 281 -125 374 -64
74 -141 96 -205 57z m97 -61 c0 -23 -18 -36 -32 -22 -7 7 -6 17 2 31 13 24 30
19 30 -9z m110 -75 c0 -46 -69 -88 -83 -51 -9 24 30 76 58 76 20 0 25 -5 25
-25z m-219 -115 c39 -22 58 -100 23 -100 -44 0 -91 60 -73 93 11 20 23 21 50
7z m277 -167 c-2 -10 -13 -19 -26 -21 -24 -4 -29 7 -10 26 18 18 40 15 36 -5z
m-213 -143 c3 -6 -1 -13 -10 -16 -19 -8 -30 0 -20 15 8 14 22 14 30 1z m522
-82 c-3 -8 -6 -5 -6 6 -1 11 2 17 5 13 3 -3 4 -12 1 -19z m-848 -72 c14 -17 8
-46 -9 -46 -6 0 -22 12 -35 26 -19 21 -22 30 -14 40 12 15 36 6 58 -20z m154
-72 c-7 -19 -23 -7 -23 18 0 17 3 18 14 8 8 -6 12 -18 9 -26z m701 -118 c-3
-9 -10 -16 -15 -16 -12 0 -22 47 -14 67 6 16 8 14 21 -9 8 -15 11 -34 8 -42z
m-849 4 c-3 -5 -10 -10 -16 -10 -5 0 -9 5 -9 10 0 6 7 10 16 10 8 0 12 -4 9
-10z m930 -249 c6 -11 -33 -26 -43 -16 -4 3 0 10 8 15 19 12 27 12 35 1z
m-964 -34 c29 -22 40 -53 24 -67 -26 -21 -79 32 -68 68 6 15 23 15 44 -1z
m1003 -189 c-12 -6 -31 -5 -49 3 -27 10 -28 12 -10 19 11 4 33 3 50 -3 27 -10
28 -11 9 -19z m-944 -13 c-9 -11 -17 -12 -31 -4 -10 5 -19 14 -19 19 0 14 23
18 43 8 14 -7 16 -12 7 -23z m385 -55 c0 -13 -5 -25 -11 -27 -13 -4 -23 25
-16 45 7 21 27 8 27 -18z m-165 -103 c0 -19 -10 -27 -26 -20 -11 4 -12 9 -3
19 15 18 29 18 29 1z"/>
</g>
</svg>
