<svg width="37" height="36" xmlns="http://www.w3.org/2000/svg" xmlns:xlink="http://www.w3.org/1999/xlink" xml:space="preserve" overflow="hidden"><g transform="translate(-213 -457)"><path d="M28.8 23.85C27.15 22.5 25.05 21.6 22.95 21 21.45 20.55 19.8 20.25 18 20.25 16.35 20.25 14.7 20.55 13.05 21 10.95 21.6 8.85 22.65 7.2 23.85 6.45 24.45 6 25.35 6 26.25L6 32.25 30 32.25 30 26.25C30 25.35 29.55 24.45 28.8 23.85Z" stroke="#FFFFFF" stroke-width="0.374964" fill="#FFFFFF" transform="matrix(1.02778 0 0 1 213 457)"/><path d="M12.15 7.65C12.375 7.65 12.5625 7.575 12.675 7.425L12.675 7.425C14.0625 6.075 15.9375 5.25 18 5.25 22.125 5.25 25.5 8.625 25.5 12.75L25.5 14.475 21.1875 15.9C21 15.825 20.8125 15.75 20.625 15.75 19.9875 15.75 19.5 16.2375 19.5 16.875 19.5 17.5125 19.9875 18 20.625 18 21.075 18 21.4875 17.7375 21.675 17.325L27.6375 15.3375C27.9375 15.225 28.1625 14.9625 28.1625 14.625L28.1625 11.25C28.1625 10.8375 27.825 10.5 27.4125 10.5L26.7375 10.5C25.725 6.6375 22.2 3.75 18 3.75 15.5625 3.75 13.35 4.725 11.7 6.3 11.5125 6.45 11.4 6.6375 11.4 6.9 11.4 7.3125 11.7375 7.65 12.15 7.65Z" stroke="#FFFFFF" stroke-width="0.374964" fill="#FFFFFF" transform="matrix(1.02778 0 0 1 213 457)"/><path d="M23.9625 13.3875C24 13.1625 24 12.975 24 12.75 24 9.45 21.3 6.75 18 6.75 14.7 6.75 12 9.45 12 12.75 12 16.05 14.7 18.75 18 18.75 18.1125 18.75 18.2625 18.75 18.375 18.7125L18.375 16.875 18.375 16.875C18.375 16.5375 18.45 16.2 18.6 15.8625 18.8625 15.3375 19.3125 14.925 19.9125 14.7375L23.9625 13.3875Z" stroke="#FFFFFF" stroke-width="0.374964" fill="#FFFFFF" transform="matrix(1.02778 0 0 1 213 457)"/></g></svg>