<?xml version="1.0" standalone="no"?>
<!DOCTYPE svg PUBLIC "-//W3C//DTD SVG 20010904//EN"
 "http://www.w3.org/TR/2001/REC-SVG-20010904/DTD/svg10.dtd">
<svg version="1.0" xmlns="http://www.w3.org/2000/svg"
 width="796.000000pt" height="797.000000pt" viewBox="0 0 796.000000 797.000000"
 preserveAspectRatio="xMidYMid meet">

<g transform="translate(0.000000,797.000000) scale(0.100000,-0.100000)"
fill="#000000" stroke="none">
<path d="M1618 6259 l-3 -1702 -805 646 c-443 355 -806 641 -808 636 -2 -5
114 -838 259 -1851 202 -1420 266 -1847 278 -1859 27 -28 3559 -2129 3578
-2129 10 0 34 10 53 21 65 40 3235 2072 3244 2080 10 9 545 3738 537 3743 -3
2 -335 -260 -736 -583 l-730 -587 -5 1645 -5 1644 -350 -364 c-193 -200 -727
-756 -1187 -1235 l-836 -871 -1214 1214 c-667 668 -1225 1223 -1240 1234 l-28
20 -2 -1702z"/>
</g>
</svg>
