<?xml version="1.0" standalone="no"?>
<!DOCTYPE svg PUBLIC "-//W3C//DTD SVG 20010904//EN"
 "http://www.w3.org/TR/2001/REC-SVG-20010904/DTD/svg10.dtd">
<svg version="1.0" xmlns="http://www.w3.org/2000/svg"
 width="936.000000pt" height="788.000000pt" viewBox="0 0 936.000000 788.000000"
 preserveAspectRatio="xMidYMid meet">

<g transform="translate(0.000000,788.000000) scale(0.100000,-0.100000)"
fill="#000000" stroke="none">
<path d="M3520 7554 c-140 -179 -255 -328 -255 -332 0 -4 270 -370 600 -814
l600 -807 215 0 216 -1 594 798 c326 438 594 805 594 814 1 9 -114 163 -254
342 l-255 325 -900 0 -900 0 -255 -325z"/>
<path d="M16 6121 c5 -6 781 -610 1724 -1344 1025 -798 1718 -1330 1721 -1323
4 6 132 425 284 931 153 506 279 925 282 931 2 6 -36 42 -84 81 -268 212 -657
561 -743 667 l-53 66 -1571 0 c-991 0 -1566 -4 -1560 -9z"/>
<path d="M6160 6064 c-86 -106 -475 -455 -743 -667 -48 -39 -86 -75 -84 -81 3
-6 129 -425 282 -931 152 -506 280 -925 284 -931 3 -7 699 528 1721 1323 943
734 1719 1338 1724 1344 6 5 -569 9 -1560 9 l-1571 0 -53 -66z"/>
<path d="M4261 4908 c-43 -210 -711 -3805 -711 -3823 0 -14 13 -34 32 -50 17
-14 269 -252 560 -528 291 -276 536 -502 543 -502 7 0 252 226 543 502 291
276 543 514 560 528 20 17 32 36 32 51 0 21 -698 3781 -715 3852 l-5 22 -414
0 -415 0 -10 -52z"/>
</g>
</svg>
